<svg xmlns="http://www.w3.org/2000/svg" width="40.001" height="40" viewBox="0 0 40.001 40"><defs><style>.a{fill:#fff;}.b{fill:#0065ff;}.c{fill:#38eb9f;}.d{fill:#253858;}.e{fill:#ff7452;}.f{fill:#ff9e86;}</style></defs><rect class="a" width="40" height="40"/><g transform="translate(0.001 0)"><rect class="b" width="3.333" height="18.889" transform="translate(1.11 11.281)"/><rect class="c" width="4.444" height="18.889" transform="translate(34.443 11.281)"/><path class="d" d="M39.167,31.515H35V14.683h4.167a.842.842,0,0,0,0-1.683h-5a.837.837,0,0,0-.833.842v1.683c-5.833,0-6.125.194-6.908-.6C25,13.454,23.633,13.842,17.5,13.842a3.328,3.328,0,0,0-2.867,1.683H5V13.842A.837.837,0,0,0,4.167,13H.833a.842.842,0,0,0,0,1.683h2.5V31.515H.833a.842.842,0,0,0,0,1.683H4.167A.838.838,0,0,0,5,32.357V30.674H6.367a2.623,2.623,0,0,0,.277,2.363,2.569,2.569,0,0,0,2.065,1.146,2.58,2.58,0,0,0,2.5,2.525,2.579,2.579,0,0,0,2.5,2.525A2.617,2.617,0,0,0,15.3,41.561a2.572,2.572,0,0,0,2.759-.494l1.042-.959a2.734,2.734,0,0,0,2.192,1.161,2.57,2.57,0,0,0,2.558-2.525,2.6,2.6,0,0,0,2.5-2.525,2.6,2.6,0,0,0,2.5-2.525,2.591,2.591,0,0,0,1.936-.949,2.644,2.644,0,0,0,.564-2.1h1.983v1.683a.837.837,0,0,0,.833.842h5a.843.843,0,0,0,0-1.658Zm-31.3,0c0-.539.083-.471,3.117-3.3a.927.927,0,0,1,1.277.087A.949.949,0,0,1,12.25,29.6L9.433,32.222a.926.926,0,0,1-1.014.168A.943.943,0,0,1,7.867,31.515Zm2.5,2.525c0-.539.083-.471,3.117-3.3a.927.927,0,0,1,1.277.087.949.949,0,0,1-.011,1.293l-2.817,2.626a.926.926,0,0,1-1.014.168.943.943,0,0,1-.552-.875Zm2.5,2.525c0-.539.083-.471,3.117-3.3a.927.927,0,0,1,1.277.087.949.949,0,0,1-.011,1.293l-2.817,2.626a.926.926,0,0,1-1.014.168A.943.943,0,0,1,12.867,36.565ZM16.933,39.8a.926.926,0,0,1-1.014.168.943.943,0,0,1-.552-.875c0-.539.083-.471,3.117-3.3a.927.927,0,0,1,1.277.087.949.949,0,0,1-.011,1.293Zm3.7-.539-.308-.328.558-.522c.892-.842.3-1.178,1.05-.421a.932.932,0,0,1,0,1.309.91.91,0,0,1-1.3,0Zm7.5-7.515-2.5-2.525a.831.831,0,0,0-1.183,0,.851.851,0,0,0,0,1.2l2.5,2.525a.958.958,0,0,1-.063,1.274.935.935,0,0,1-1.262.064l-2.5-2.525a.831.831,0,0,0-1.183,0,.851.851,0,0,0,0,1.2c2.667,2.685,2.783,2.651,2.783,3.19a.951.951,0,0,1-.569.867.935.935,0,0,1-1.015-.177C20.467,34.166,20.483,34.04,20,34.04a2.479,2.479,0,0,0-.767-.16,2.6,2.6,0,0,0-2.5-2.525,2.6,2.6,0,0,0-2.5-2.525,2.617,2.617,0,0,0-1.6-2.322,2.572,2.572,0,0,0-2.755.5C7.275,29.411,7.817,28.99,7.5,28.99H5V17.208h9.167A3.35,3.35,0,0,0,17.5,20.574h2.158l9.75,9.855a.949.949,0,0,1-.028,1.286.927.927,0,0,1-1.272.061Zm5.2-2.752H30.342l-8.333-8.416h1.325a.842.842,0,0,0,0-1.683H17.5a1.683,1.683,0,0,1,0-3.366c6.825,0,6.967-.185,7.742.6,1.425,1.405,2.5,1.086,8.092,1.086C33.333,29.613,33.417,28.99,33.333,28.99Z" transform="translate(0 -2.611)"/><path class="e" d="M18.947,5.764c3.675,3.667,3.464,3.578,3.918,3.578s.284.049,3.918-3.578c2.645-2.653-.673-7.009-3.918-5.1C19.62-1.245,16.3,3.111,18.947,5.764Zm3.367-3.5a.86.86,0,0,0,1.1,0A1.623,1.623,0,0,1,26.11,3.468c0,.892-.373,1.047-3.245,3.918C20.123,4.661,19.62,4.393,19.62,3.468a1.623,1.623,0,0,1,2.693-1.209Z" transform="translate(-2.865 -0.193)"/><path class="f" d="M34.046,12.2a.811.811,0,0,0,1.152,0l.811-.811a.815.815,0,0,0-1.152-1.152l-.235.243-.235-.243a.815.815,0,0,0-1.152,1.152Z" transform="translate(-5.433 -1.812)"/><path class="f" d="M11.046,3.2a.811.811,0,0,0,1.152,0l.811-.811a.815.815,0,0,0-1.152-1.152l-.235.243-.235-.243a.815.815,0,0,0-1.152,1.152Z" transform="translate(-1.647 -0.344)"/></g></svg>